Genre:Horror | Thriller
Language: English
IMDB:http://www.imdb.com/title/tt1320244/
Source:LKRG.Thanks

General
Complete name :The Last Exorcism 2010 CAM Xvid Feel-Free
Format : AVI
Format/Info : Audio Video Interleave
File size : 952 MiB
Duration : 1h 20mn
Overall bit rate : 1 646 Kbps
Video #0
Codec ID : XVID
Codec ID/Hint : XviD
Duration : 1h 20mn
Bit rate : 1 187 Kbps
Width : 652 pixels
Height : 352 pixels
Display aspect ratio : 1.852
Frame rate : 29.970 fps
Resolution : 24 bits
Colorimetry : 4:2:0
Scan type : Progressive
Bits/(Pixel*Frame) : 0.173
Stream size : 686 MiB (72%)
Writing library : XviD 1.2.1 (UTC 2008-12-04)
Audio #1
ID : 1
Format : AC-3
Format/Info : Audio Coding 3
Codec ID : 2000
Duration : 1h 20mn
Bit rate mode : Constant
Bit rate : 448 Kbps
Channel(s) : 2 channels
Channel positions : L R
Sampling rate : 48.0 KHz
Stream size : 259 MiB (27%)
Alignment : Aligned on interleaves
Interleave, duration : 33 ms (1.00 video frame)
Interleave, preload duration : 512 ms

Plot
A troubled evangelical minister agrees to let his last exorcism be filmed by a documentary crew